<?xml version="1.0" encoding="UTF-8" standalone="no"?>
<!-- Created with Inkscape (http://www.inkscape.org/) -->

<svg
   xmlns:dc="http://purl.org/dc/elements/1.1/"
   xmlns:cc="http://creativecommons.org/ns#"
   xmlns:rdf="http://www.w3.org/1999/02/22-rdf-syntax-ns#"
   xmlns:svg="http://www.w3.org/2000/svg"
   xmlns="http://www.w3.org/2000/svg"
   xmlns:sodipodi="http://sodipodi.sourceforge.net/DTD/sodipodi-0.dtd"
   xmlns:inkscape="http://www.inkscape.org/namespaces/inkscape"
   width="210mm"
   height="297mm"
   viewBox="0 0 744.09448819 1052.3622047"
   id="svg2"
   version="1.1"
   inkscape:version="0.91 r13725"
   sodipodi:docname="ex3.svg">
  <defs
     id="defs4" />
  <sodipodi:namedview
     id="base"
     pagecolor="#ffffff"
     bordercolor="#666666"
     borderopacity="1.0"
     inkscape:pageopacity="0.0"
     inkscape:pageshadow="2"
     inkscape:zoom="1.4"
     inkscape:cx="155.25895"
     inkscape:cy="391.09862"
     inkscape:document-units="px"
     inkscape:current-layer="layer1"
     showgrid="false"
     inkscape:window-width="1600"
     inkscape:window-height="838"
     inkscape:window-x="-8"
     inkscape:window-y="-8"
     inkscape:window-maximized="1" />
  <metadata
     id="metadata7">
    <rdf:RDF>
      <cc:Work
         rdf:about="">
        <dc:format>image/svg+xml</dc:format>
        <dc:type
           rdf:resource="http://purl.org/dc/dcmitype/StillImage" />
        <dc:title></dc:title>
      </cc:Work>
    </rdf:RDF>
  </metadata>
  <g
     inkscape:label="Layer 1"
     inkscape:groupmode="layer"
     id="layer1">
    <text
       xml:space="preserve"
       style="font-style:normal;font-weight:normal;font-size:40px;line-height:125%;font-family:sans-serif;letter-spacing:0px;word-spacing:0px;fill:#000000;fill-opacity:0;stroke:none;stroke-width:1px;stroke-linecap:butt;stroke-linejoin:miter;stroke-opacity:1;"
       x="137.85715"
       y="664.86218"
       id="text3344"
       sodipodi:linespacing="125%"><tspan
         sodipodi:role="line"
         id="tspan3346"
         x="137.85715"
         y="664.86218" /></text>
    <path
       sodipodi:type="star"
       style="fill:#000000;fill-opacity:0"
       id="path3354"
       sodipodi:sides="5"
       sodipodi:cx="106.42857"
       sodipodi:cy="632.36218"
       sodipodi:r1="103.48087"
       sodipodi:r2="51.740437"
       sodipodi:arg1="0.72434942"
       sodipodi:arg2="1.352668"
       inkscape:flatsided="false"
       inkscape:rounded="0"
       inkscape:randomized="0"
       d="M 183.92857,700.93361 117.62534,682.87659 65.162087,727.2588 61.846511,658.62075 3.4244807,622.44009 67.678575,598.07647 l 16.356455,-66.7431 43.02679,53.5805 68.53088,-5.06883 -37.66208,57.47819 z"
       inkscape:transform-center-x="6.9199852"
       inkscape:transform-center-y="-3.0660957" />
    <path
       sodipodi:type="star"
       style="fill:#000000;fill-opacity:0"
       id="path3358"
       sodipodi:sides="5"
       sodipodi:cx="150"
       sodipodi:cy="609.50507"
       sodipodi:r1="300.45035"
       sodipodi:r2="119.61289"
       sodipodi:arg1="0.73157813"
       sodipodi:arg2="1.3598967"
       inkscape:flatsided="false"
       inkscape:rounded="0"
       inkscape:randomized="0"
       d="M 373.57143,810.21935 175.03972,726.46769 28.196741,884.15826 46.499632,669.4627 -148.84999,578.53579 60.99353,529.59829 87.103809,315.7118 198.49134,500.16233 409.978,458.90012 268.97577,621.83431 Z"
       inkscape:transform-center-x="19.435991"
       inkscape:transform-center-y="-9.5700337" />
    <path
       style="fill:#000000;fill-opacity:0"
       id="path3362"
       sodipodi:type="arc"
       sodipodi:cx="132.5"
       sodipodi:cy="723.43365"
       sodipodi:rx="61.07143"
       sodipodi:ry="56.07143"
       sodipodi:start="0"
       sodipodi:end="2.3461274"
       d="m 193.57143,723.43365 a 61.07143,56.07143 0 0 1 -37.4167,51.69459 61.07143,56.07143 0 0 1 -66.401834,-11.64897 L 132.5,723.43365 Z" />
    <path
       style="fill:#000000;fill-opacity:0"
       id="path3366"
       d="m 64.964062,676.16797 c 4.088037,-11.42929 7.592998,-23.05486 11.190376,-34.64493 3.864017,-12.08803 8.101973,-24.18191 14.016052,-35.44849 1.021096,-1.94523 2.160528,-3.82601 3.240791,-5.73902 4.329351,-6.99051 9.049109,-14.1439 15.754279,-19.11317 1.02077,-0.7565 2.13264,-1.38161 3.19896,-2.07242 3.9972,-2.19277 7.88195,-4.60433 11.9916,-6.57832 1.63017,-0.78302 6.85454,-1.67501 8.50511,-1.91877 4.68954,-0.69254 9.4145,-0.90848 14.14282,-1.12697 6.57549,-0.21918 13.17675,0.40191 19.52838,2.15859 3.7413,1.03474 6.43507,2.11325 10.06299,3.45173 5.67273,2.48219 11.53134,4.93083 16.14147,9.18861 2.57592,2.37903 3.24202,3.50164 5.32712,6.25 5.28058,7.79064 6.41137,16.31989 7.2218,25.45815 0.32914,6.8582 0.79414,13.7512 0.54975,20.6224 -0.13298,3.73884 -0.39397,5.215 -0.84666,8.86005 -0.62235,4.93047 -2.03982,9.68268 -3.74205,14.33229 -0.83433,2.44588 -2.8156,3.97838 -4.62947,5.68358 -6.94289,6.99202 -14.56671,13.25266 -22.11856,19.56498 -9.28679,8.01388 -18.60165,16.07828 -27.00916,25.03233 -1.29077,1.37468 -2.51995,2.80591 -3.77993,4.20887 -3.44211,4.0869 -6.9789,8.17151 -9.6017,12.85567 -1.16931,2.0883 -1.28865,2.54001 -2.17034,4.66502 -1.08554,3.18183 -1.9671,6.6149 -1.0044,9.92446 2.20275,3.86317 7.30408,4.93754 11.19247,6.24722 1.92156,0.56765 3.83092,1.17832 5.76467,1.70294 4.74927,1.28846 9.40939,2.3142 14.2209,3.36016 8.4452,1.83587 16.90649,3.56668 25.39268,5.20091 14.32987,2.7557 28.63086,5.72859 43.03577,8.07911 7.57186,1.23553 13.89516,2.03969 21.49271,3.06859 13.05972,1.4472 26.19681,3.05982 39.36732,2.682 2.84423,-0.0816 5.69623,-0.19121 8.51801,-0.55709 2.83742,-0.3679 5.61696,-1.09321 8.42544,-1.63981 7.72427,-1.94923 15.29026,-4.69896 22.10393,-8.89166 0.76648,-0.47165 -3.08477,1.6881 -2.5095,0.99599 1.30482,-1.56979 3.28587,-2.43075 4.82069,-3.77654 1.47968,-1.29744 2.80563,-2.76038 4.20844,-4.14058 2.6853,-3.31867 4.70866,-5.54166 6.83309,-9.26652 3.2244,-5.65351 5.42491,-11.9976 7.0949,-18.26309 0.54505,-2.0449 0.95083,-4.12441 1.42624,-6.18661 1.4004,-7.21475 2.27917,-14.55933 1.93316,-21.92057 -0.19238,-4.09275 -0.60116,-6.12879 -1.20508,-10.18406 -2.11424,-10.36089 -6.28168,-20.08613 -11.00405,-29.48952 -4.27644,-8.61899 -9.50732,-16.70507 -14.99352,-24.59127 -5.73736,-7.95366 -12.7786,-14.77798 -20.05729,-21.29359 -5.34943,-4.63422 -10.94117,-9.02091 -16.83421,-12.9485 -3.69537,-2.46288 -5.05296,-3.1603 -8.89399,-5.37045 -10.31553,-5.60302 -21.24505,-9.93877 -32.21226,-14.07163 -6.57478,-2.49816 -13.29772,-4.57993 -20.13241,-6.23092 0,0 8.4437,-5.81154 8.4437,-5.81154 l 0,0 c 6.68891,1.8765 13.28689,4.06339 19.74737,6.62413 11.00052,4.2326 22.06169,8.45728 32.42565,14.119 4.06895,2.36609 5.00742,2.82315 8.92151,5.45524 5.91875,3.98015 11.51193,8.4294 16.98521,12.99434 7.30497,6.59875 14.31426,13.55095 20.19839,21.47785 5.49544,7.93676 10.70568,16.0926 14.94011,24.78487 4.74944,9.50192 9.06026,19.27335 11.18493,29.74242 0.63673,4.10773 1.06404,6.15536 1.27189,10.30796 0.3736,7.46411 -0.57854,14.90098 -2.00765,22.21197 -0.47518,2.0857 -0.88135,4.18833 -1.42555,6.2571 -1.07575,4.08946 -2.59964,8.71967 -4.20087,12.63025 -0.80988,1.9779 -1.63273,3.9594 -2.65524,5.83621 -1.93363,3.54917 -4.30558,6.29923 -6.78466,9.45992 -1.40073,1.41991 -2.71775,2.92757 -4.20219,4.25972 -5.65538,5.0752 -12.06045,8.47808 -18.71726,12.33021 -6.8954,3.99018 -14.37932,6.75358 -22.12622,8.55718 -2.83662,0.51829 -5.64613,1.21711 -8.50986,1.55487 -2.81104,0.33155 -5.6496,0.39962 -8.4797,0.44897 -13.12233,0.2288 -26.19906,-1.44646 -39.20475,-2.93777 -7.97851,-1.09572 -13.52545,-1.8003 -21.47804,-3.12276 -14.48018,-2.40794 -28.85472,-5.42996 -43.32586,-7.89116 -15.41492,-2.93378 -30.86164,-5.88315 -46.02319,-9.95368 -4.43603,-1.29971 -9.81716,-2.36318 -12.17955,-6.81377 -0.13746,-0.45174 -0.32525,-0.89113 -0.41238,-1.35521 -0.5827,-3.10368 0.37427,-6.35132 1.2656,-9.28406 0.89047,-2.19562 1.02549,-2.7046 2.21441,-4.85685 2.67241,-4.83775 6.3574,-9.00103 9.90959,-13.19683 1.29427,-1.4314 2.55929,-2.8898 3.88281,-4.29419 8.46503,-8.98231 17.83585,-17.06734 27.11937,-25.17737 7.25866,-6.17714 14.67484,-12.2321 21.26389,-19.13806 1.67226,-1.69279 3.7379,-3.05946 4.78083,-5.26174 1.89701,-4.61606 3.5155,-9.3552 4.26037,-14.31046 0.49495,-3.44983 0.83448,-5.26986 1.00772,-8.80216 0.33553,-6.84136 -0.17299,-13.71164 -0.4914,-20.541 -0.83834,-8.82713 -1.97686,-17.37657 -7.11228,-24.88558 -2.03151,-2.70676 -2.61697,-3.74203 -5.15576,-6.06589 -4.53218,-4.14849 -10.26859,-6.59057 -15.83207,-9.00293 -3.88591,-1.42534 -5.96478,-2.29389 -9.99739,-3.3394 -6.33855,-1.64337 -12.90451,-2.15468 -19.43394,-1.89803 -6.1998,0.31631 -12.50129,0.59649 -18.54084,2.17383 -1.35402,0.35362 -4.74599,2.47129 -3.99506,1.29039 1.12621,-1.77106 3.54537,-2.24728 5.31806,-3.37092 -1.09231,0.65577 -2.23019,1.241 -3.27692,1.96731 -6.92146,4.80275 -11.82208,11.95494 -16.28247,18.94287 -1.0973,1.89993 -2.250474,3.76867 -3.29191,5.69978 -6.052713,11.22344 -10.458864,23.28918 -14.305237,35.41385 -3.471636,11.36818 -6.841435,22.76575 -10.152788,34.18149 0,0 -9.497713,4.46048 -9.497713,4.46048 z"
       inkscape:connector-curvature="0" />
    <path
       style="fill:none;fill-rule:evenodd;stroke:#000000;stroke-width:1px;stroke-linecap:butt;stroke-linejoin:miter;stroke-opacity:1"
       d="m 71.428572,638.79078 -0.714286,-85.71429 78.571424,-0.71429 0,27.85715 -27.14285,0.71428 0,9.28572 -38.571431,0.71428 0,12.85715 62.857141,0 0,35 z"
       id="path3370"
       inkscape:connector-curvature="0" />
  </g>
</svg>
