<?xml version="1.0" encoding="UTF-8" standalone="no"?>
<!-- Created with Inkscape (http://www.inkscape.org/) -->

<svg
   xmlns:dc="http://purl.org/dc/elements/1.1/"
   xmlns:cc="http://creativecommons.org/ns#"
   xmlns:rdf="http://www.w3.org/1999/02/22-rdf-syntax-ns#"
   xmlns:svg="http://www.w3.org/2000/svg"
   xmlns="http://www.w3.org/2000/svg"
   xmlns:sodipodi="http://sodipodi.sourceforge.net/DTD/sodipodi-0.dtd"
   xmlns:inkscape="http://www.inkscape.org/namespaces/inkscape"
   width="210mm"
   height="297mm"
   viewBox="0 0 744.09448819 1052.3622047"
   id="svg4168"
   version="1.1"
   inkscape:version="0.91 r13725"
   sodipodi:docname="ex6.svg">
  <defs
     id="defs4170" />
  <sodipodi:namedview
     id="base"
     pagecolor="#ffffff"
     bordercolor="#666666"
     borderopacity="1.0"
     inkscape:pageopacity="0.0"
     inkscape:pageshadow="2"
     inkscape:zoom="0.98994949"
     inkscape:cx="79.402946"
     inkscape:cy="622.35075"
     inkscape:document-units="px"
     inkscape:current-layer="layer1"
     showgrid="false"
     inkscape:window-width="1600"
     inkscape:window-height="838"
     inkscape:window-x="-8"
     inkscape:window-y="-8"
     inkscape:window-maximized="1" />
  <metadata
     id="metadata4173">
    <rdf:RDF>
      <cc:Work
         rdf:about="">
        <dc:format>image/svg+xml</dc:format>
        <dc:type
           rdf:resource="http://purl.org/dc/dcmitype/StillImage" />
        <dc:title></dc:title>
      </cc:Work>
    </rdf:RDF>
  </metadata>
  <g
     inkscape:label="Layer 1"
     inkscape:groupmode="layer"
     id="layer1">
    <path
       style="fill:none;fill-rule:evenodd;stroke:#000000;stroke-width:1px;stroke-linecap:butt;stroke-linejoin:miter;stroke-opacity:1"
       d="m 151.52288,465.46358 c 0,-3.36718 0,-6.73435 0,-10.10153 0,-0.67343 0.13207,-1.35995 0,-2.0203 -0.20882,-1.04412 -0.80133,-1.98635 -1.01015,-3.03046 -0.13207,-0.66036 0.16333,-1.36698 0,-2.02031 -0.18261,-0.73044 -0.77206,-1.30602 -1.01015,-2.0203 -0.43903,-1.31708 -0.78192,-2.67118 -1.01016,-4.04061 -0.11071,-0.66427 0.30117,-1.41797 0,-2.02031 -0.15058,-0.30117 -0.85956,0.30117 -1.01015,0 -0.60234,-1.20467 0.42592,-2.76285 0,-4.04061 -0.15058,-0.45175 -0.85957,-0.5584 -1.01015,-1.01015 -0.15414,-0.46241 0,-4.48694 0,-5.05076 0,-0.67344 0.21296,-1.38143 0,-2.02031 -0.15059,-0.45175 -0.85957,-0.5584 -1.01015,-1.01015 -0.21296,-0.63888 0,-1.34687 0,-2.02031 0,-2.0203 0,-4.04061 0,-6.06091 0,-0.67344 0.16333,-1.36698 0,-2.02031 -0.18261,-0.73044 -0.77206,-1.30602 -1.01016,-2.0203 -0.21214,-0.63645 0,-5.28975 0,-6.06092 0,-4.04061 0,-8.08122 0,-12.12183 0,-2.69374 0,-5.38748 0,-8.08122 0,-0.67343 0,-1.34687 0,-2.0203 0,-0.33672 -0.10648,-0.69072 0,-1.01016 0.2381,-0.71428 0.77206,-1.30601 1.01016,-2.0203 0.31912,-0.95737 -0.31913,-4.09339 0,-5.05076 0.23809,-0.71429 0.77205,-1.30602 1.01015,-2.02031 0.21296,-0.63887 -0.30117,-1.41796 0,-2.0203 0.21296,-0.42592 0.79719,-0.58424 1.01015,-1.01016 0.30117,-0.60233 -0.30117,-1.41796 0,-2.0203 0.21296,-0.42592 0.7972,-0.58424 1.01015,-1.01015 0.40407,-0.80813 -0.40406,-2.22234 0,-3.03046 3.35026,-3.35026 -0.47619,0.95238 1.01016,-2.02031 0.42591,-0.85183 1.59438,-1.16847 2.0203,-2.0203 0.15059,-0.30117 -0.15058,-0.70898 0,-1.01015 0.21296,-0.42592 0.7972,-0.58424 1.01015,-1.01016 0.30117,-0.60233 -0.30116,-1.41796 0,-2.0203 0.21296,-0.42592 0.7972,-0.58424 1.01016,-1.01015 0.15058,-0.30117 -0.15059,-0.70899 0,-1.01016 2.102,-4.20401 -0.0697,1.07989 2.0203,-1.01015 0.2381,-0.23809 -0.10648,-0.69071 0,-1.01015 0.2381,-0.71429 0.59251,-1.39384 1.01015,-2.02031 0.26415,-0.39621 0.85957,-0.5584 1.01016,-1.01015 0.21296,-0.63888 -0.30117,-1.41797 0,-2.0203 1.04502,0 1.39618,0.23809 2.0203,-1.01016 0.15059,-0.30117 -0.15058,-0.70898 0,-1.01015 0.21296,-0.42592 0.74601,-0.61394 1.01015,-1.01015 0.41765,-0.62647 0.47776,-1.48791 1.01016,-2.02031 0.53239,-0.53239 1.39383,-0.5925 2.0203,-1.01015 2.51269,-1.67513 0.11606,-0.23211 1.01015,-2.0203 0.21296,-0.42592 0.67344,-0.67344 1.01016,-1.01016 0.33671,-0.33671 0.58423,-0.79719 1.01015,-1.01015 0.30117,-0.15058 0.70898,0.15058 1.01015,0 4.20402,-2.10201 -1.07989,0.0697 1.01016,-2.0203 0.23809,-0.2381 0.70898,0.15058 1.01015,0 1.21218,-0.6061 1.81827,-2.42437 3.03046,-3.03046 0.30116,-0.15059 0.67343,0 1.01015,0 0.67343,-0.33672 1.39383,-0.59251 2.0203,-1.01016 1.86341,-1.24227 0.1569,-0.77803 2.02031,-2.0203 7.32419,-3.6621 -1.59719,1.06479 3.03046,-2.02031 -0.11504,-1.91366 2.35702,-0.67343 3.03045,-1.01015 1.21219,-0.60609 1.81828,-2.42436 3.03046,-3.03046 3.74474,-1.24824 2.07808,-0.53396 5.05076,-2.0203 2.02031,-1.01015 4.04061,-2.02031 6.06092,-3.03046 0.67343,-0.33672 1.30602,-0.77206 2.0203,-1.01015 0.31944,-0.10648 0.70899,0.15058 1.01016,0 0.42591,-0.21296 0.58423,-0.79719 1.01015,-1.01015 0.59601,-0.29801 2.33564,0.2316 3.03046,0 0.71428,-0.2381 1.30602,-0.77206 2.0203,-1.01016 0.95168,-0.31722 5.40599,0.32747 6.06092,0 0.42591,-0.21295 0.58423,-0.79719 1.01015,-1.01015 0.30117,-0.15058 0.67343,0 1.01015,0 0.67344,0 1.34687,0 2.02031,0 1.34687,0 2.69374,0 4.04061,0 4.71404,0 9.42809,0 14.14213,0 1.34687,0 2.69374,0 4.04061,0 0.33672,0 0.77206,-0.23809 1.01016,0 0.23809,0.2381 -0.2381,0.77206 0,1.01015 0.23809,0.2381 0.70898,-0.15058 1.01015,0 0.42592,0.21296 0.5584,0.85957 1.01015,1.01016 0.63888,0.21296 1.34687,0 2.02031,0 0.33671,0 0.70898,-0.15059 1.01015,0 0.42592,0.21296 0.58423,0.79719 1.01015,1.01015 0.30117,0.15058 0.70898,-0.15059 1.01015,0 4.20402,2.10201 -1.07989,-0.0697 1.01016,2.0203 0.23809,0.2381 0.77205,-0.23809 1.01015,0 0.23809,0.2381 -0.2381,0.77206 0,1.01016 0.50507,0.50507 2.52538,-0.50508 3.03046,0 0.23809,0.23809 -0.15059,0.70898 0,1.01015 0.21296,0.42592 0.67343,0.67343 1.01015,1.01015 0.33672,0.33672 0.58423,0.7972 1.01015,1.01015 0.30117,0.15059 0.77206,-0.23809 1.01015,0 0.2381,0.2381 -0.15058,0.70899 0,1.01016 2.10201,4.20401 -0.0697,-1.07989 2.02031,1.01015 0.47619,0.47619 -0.30117,1.41797 0,2.0203 0.21296,0.42592 0.79719,0.58424 1.01015,1.01016 0.15059,0.30117 -0.23809,0.77205 0,1.01015 0.2381,0.2381 0.70898,-0.15058 1.01015,0 0.42592,0.21296 0.67344,0.67343 1.01016,1.01015 0.33671,0.33672 0.79719,0.58424 1.01015,1.01015 0.30117,0.60234 -0.30117,1.41797 0,2.02031 2.10201,4.20401 -0.0697,-1.07989 2.0203,1.01015 0.2381,0.2381 -0.15058,0.70899 0,1.01016 0.21296,0.42591 0.7972,0.58423 1.01016,1.01015 0.15058,0.30117 -0.15059,0.70898 0,1.01015 0.21296,0.42592 0.79719,0.58424 1.01015,1.01015 0.30117,0.60234 -0.30117,1.41797 0,2.02031 0.21296,0.42592 0.79719,0.58423 1.01015,1.01015 0.15059,0.30117 -0.23809,0.77206 0,1.01015 0.2381,0.2381 0.77206,-0.23809 1.01015,0 0.47619,0.47619 -0.47619,1.54412 0,2.02031 0.2381,0.23809 0.77206,-0.2381 1.01016,0 0.47619,0.47619 -0.47619,1.54411 0,2.0203 0.23809,0.2381 0.77205,-0.23809 1.01015,0 0.23809,0.2381 -0.2381,0.77206 0,1.01016 0.23809,0.23809 0.77206,-0.2381 1.01015,0 0.24308,0.24307 -0.24307,3.79753 0,4.04061 0.2381,0.23809 0.77206,-0.2381 1.01015,0 0.2381,0.23809 -0.15058,0.70898 0,1.01015 0.21296,0.42592 0.7972,0.58423 1.01016,1.01015 0.15058,0.30117 -0.15059,0.70898 0,1.01015 0.21296,0.42592 0.79719,0.58424 1.01015,1.01016 0.15058,0.30117 -0.2381,0.77205 0,1.01015 0.2381,0.23809 0.85957,-0.30117 1.01015,0 0.67344,1.34687 -0.67343,3.70389 0,5.05076 0.15059,0.30117 0.77206,-0.23809 1.01015,0 0.4762,0.47619 -0.47619,1.54412 0,2.02031 1.34687,1.34687 1.01016,-1.68359 1.01016,1.01015"
       id="path4716"
       inkscape:connector-curvature="0" />
  </g>
</svg>
