<?xml version="1.0" encoding="UTF-8" standalone="no"?>
<!DOCTYPE svg PUBLIC "-//W3C//DTD SVG 20010904//EN"
              "http://www.w3.org/TR/2001/REC-SVG-20010904/DTD/svg10.dtd">

<svg xmlns="http://www.w3.org/2000/svg"
     width="22.2222in" height="12.5in"
     viewBox="0 0 1600 900">
  <path id="Bauteil"
        fill="none" stroke="black" stroke-width="1"
        d="M 725.17,222.29
           C 754.87,193.45 808.10,193.12 836.57,224.09
             842.22,230.24 847.78,238.28 850.99,246.00
             855.03,255.73 856.99,265.48 857.00,276.00
             857.00,276.00 1264.00,276.00 1264.00,276.00
             1264.00,276.00 1264.00,740.00 1264.00,740.00
             1264.00,740.00 857.00,740.00 857.00,740.00
             856.59,748.91 854.10,758.82 850.57,767.00
             825.46,825.25 737.38,825.96 710.32,769.00
             706.30,760.53 703.43,749.37 703.00,740.00
             703.00,740.00 316.00,740.00 316.00,740.00
             316.00,740.00 316.00,529.00 316.00,529.00
             316.00,529.00 601.00,529.00 601.00,529.00
             601.00,529.00 601.00,485.00 601.00,485.00
             601.00,485.00 316.00,485.00 316.00,485.00
             316.00,485.00 316.00,276.00 316.00,276.00
             316.00,276.00 703.00,276.00 703.00,276.00
             703.01,256.10 710.77,236.26 725.17,222.29 Z
           M 846.57,249.00
           C 843.07,240.88 835.57,230.41 828.96,224.59
             816.36,213.49 800.89,206.25 784.00,205.09
             776.74,204.59 770.02,205.62 763.00,207.37
             729.51,215.72 707.03,245.78 707.00,280.00
             707.00,280.00 320.00,280.00 320.00,280.00
             320.00,280.00 320.00,481.00 320.00,481.00
             320.00,481.00 605.00,481.00 605.00,481.00
             605.00,481.00 605.00,533.00 605.00,533.00
             605.00,533.00 320.00,533.00 320.00,533.00
             320.00,533.00 320.00,736.00 320.00,736.00
             320.00,736.00 707.00,736.00 707.00,736.00
             708.81,775.38 743.85,809.67 784.00,806.91
             799.95,805.82 814.80,799.25 827.00,789.08
             834.10,783.15 841.02,774.28 845.19,766.00
             849.52,757.40 852.56,745.62 853.00,736.00
             853.00,736.00 1260.00,736.00 1260.00,736.00
             1260.00,736.00 1260.00,280.00 1260.00,280.00
             1260.00,280.00 853.00,280.00 853.00,280.00
             852.99,269.15 850.88,258.98 846.57,249.00 Z" />
</svg>
